<svg id="eMXFAiHfNP01" xmlns="http://www.w3.org/2000/svg" xmlns:xlink="http://www.w3.org/1999/xlink" viewBox="0 0 300 300" shape-rendering="geometricPrecision" text-rendering="geometricPrecision"><g><line x1="-41" y1="23.5" x2="41" y2="-23.5" transform="translate(202 240)" fill="none" stroke="#fd7e14" stroke-width="20"/><line x1="0" y1="-47" x2="0" y2="47" transform="translate(150 210)" fill="none" stroke="#fd7e14" stroke-width="20"/><line x1="0" y1="-47" x2="0" y2="47" transform="translate(150 90)" fill="none" stroke="#fd7e14" stroke-width="20"/><line x1="41" y1="-23.5" x2="-41" y2="23.5" transform="translate(98 60)" fill="none" stroke="#fd7e14" stroke-width="20"/><line x1="41" y1="-23.5" x2="-41" y2="23.5" transform="translate(98 180)" fill="none" stroke="#fd7e14" stroke-width="20"/><line x1="-41" y1="-23.5" x2="41" y2="23.5" transform="translate(98 120)" fill="none" stroke="#fd7e14" stroke-width="20"/></g><g><ellipse rx="20" ry="20" transform="translate(46 90)" fill="#fd7e14" stroke-width="20"/><ellipse rx="20" ry="20" transform="translate(150 150)" fill="#fd7e14" stroke-width="20"/><ellipse rx="20" ry="20" transform="translate(150 35)" fill="#fd7e14" stroke-width="20"/><ellipse rx="20" ry="20" transform="translate(150 270)" fill="#fd7e14" stroke-width="20"/><ellipse rx="20" ry="20" transform="translate(254 90)" fill="#fd7e14" stroke-width="20"/><ellipse rx="20" ry="20" transform="translate(254 210)" fill="#fd7e14" stroke-width="20"/><ellipse rx="20" ry="20" transform="translate(46 210)" fill="#fd7e14" stroke-width="20"/></g></svg>
